<?xml version="1.0" encoding="utf-8"?>
<!-- Generator: Adobe Illustrator 19.0.0, SVG Export Plug-In . SVG Version: 6.00 Build 0)  -->
<svg version="1.1" id="Layer_1" xmlns="http://www.w3.org/2000/svg" x="0px" y="0px"
	 viewBox="-230 378.4 149.2 36.6" style="enable-background:new -230 378.4 149.2 36.6;" xml:space="preserve">
<style type="text/css">
	.st0{fill:#fff;}
	.st1{fill:#fff;}
	.st2{fill:#fff;}
	.st3{fill:#fff;}
	.st4{fill:#fff;}
</style>
	<path class="st0" d="M-229.4,408.2c2.3-0.9,5-1.9,7.9-2.8v9.1h-7.9V408.2z"/>
	<path class="st0" d="M-210.4,397.1c-2.8,0.4-5.5,0.9-8.1,1.4l0-0.1l-3-6.1v6.6c-2.8,0.6-5.5,1.2-7.9,1.9v-21.6h10.7l8.3,17.7V397.1
	C-210.3,397.1-210.4,397.1-210.4,397.1z"/>
	<path class="st0" d="M-189.8,379.2v35.3h-7.9v-14.3c2.6-0.3,5.1-0.8,7.8-1.1v-4.8c-2.7,0.2-5.2,0.5-7.8,0.8v-2.8l-1.5,3l-2.8,5.7
	l-5.3,10.6h-4.7l-3.8-7.6c4.1-1.1,8.7-2.1,13.7-2.9l2.8-5.7c-3.3,0.4-6.4,0.8-9.4,1.3l8.2-17.5H-189.8z"/>
	<path id="XMLID_5_" class="st1" d="M-155.7,396.1c-2.8,0.1-5.5,0.3-8.1,0.5l1.4,3.4h-8.8v-0.1l1.3-2.9c-3,0.3-5.9,0.5-8.7,0.8
	l-7.2,16.7h8.4l3.3-7.6h14.8l3.3,7.6h8.4L-155.7,396.1z M-166.7,389.7l1.2,2.9c2.7-0.1,5.4-0.3,8.2-0.3l-5.6-13.1h-7.6l-6.1,14
	c2.8-0.2,5.7-0.4,8.6-0.5L-166.7,389.7z"/>
	<path class="st2" d="M-114.9,391c0,0.6-0.1,1.2-0.1,1.7h-0.1c-2.7-0.1-5.3-0.2-8-0.3c0,0,0-0.1,0-0.1c0.1-0.4,0.1-0.8,0.1-1.3
	c0-1.9-0.5-3.2-1.5-3.9c-1-0.8-2.8-1.1-5.3-1.1h-5.9v6h-5.4v-0.1h-2.5v-12.7h13.5c5.4,0,9.3,0.9,11.7,2.8
	C-116.1,383.9-114.9,386.9-114.9,391z"/>
	<path class="st2" d="M-112.8,414.5h-9.7l-7.8-11.3h-5.4v11.3h-7.9v-19c2.6-0.1,5.2-0.1,7.9-0.1v1.1h5.8c2.3,0,3.9-0.3,5-1
	c3.2,0,6.2,0,9.3,0.1c-1,3.1-3,5.2-6.1,6.3L-112.8,414.5z"/>
	<path id="XMLID_12_" class="st3" d="M-84,397.3c-6.8-0.6-14-1.1-21.5-1.4c0.1,0.2,0.3,0.3,0.4,0.4c1.9,1.6,4.9,2.9,9,3.8
	c2.6,0.6,4.3,1.3,5.2,1.9c0.8,0.6,1.3,1.5,1.3,2.5s-0.4,1.9-1.3,2.5c-0.8,0.6-1.9,0.9-3.4,0.9c-3.2,0-6.7-1.7-10.5-5l-4.7,5.8
	c4.5,4.1,9.5,6.2,15.1,6.2c3.9,0,7-1,9.3-3c2.4-1.9,3.6-4.5,3.6-7.7C-81.4,401.2-82.2,398.9-84,397.3z M-98.6,386.4
	c0.8-0.6,1.8-1,3.1-1c3.3,0,6.4,1.2,9.5,3.5l4-5.8c-1.7-1.5-3.8-2.6-6.1-3.4c-2.3-0.8-4.8-1.3-7.2-1.3c-3.6,0-6.6,0.9-9,2.7
	c-2.4,1.8-3.6,4.4-3.6,7.7c0,1.6,0.2,3,0.7,4.2c6.8,0.5,13.3,1.1,19.5,1.8c-1.2-0.6-2.7-1.1-4.2-1.4c-3.4-0.8-5.5-1.6-6.4-2.1
	c-0.9-0.6-1.4-1.4-1.4-2.5C-99.7,387.8-99.3,386.9-98.6,386.4z"/>
	<path class="st4"
		  d="M-215.8,403.9L-215.8,403.9C-215.8,404-215.8,404-215.8,403.9l-2.7-5.4c0,0,0,0,0,0L-215.8,403.9z"/>
	<path class="st4" d="M-208.7,396.7l-0.9,1.9l-0.7-1.5C-209.8,396.8-209.3,396.7-208.7,396.7z"/>
	<path class="st4" d="M-197.7,395.1v5.1c0,0-0.1,0-0.1,0L-197.7,395.1C-197.8,395.1-197.7,395.1-197.7,395.1z"/>
	<path class="st4"
		  d="M-115.1,392.6c0,0,0,0.1,0,0.1c-2.7-0.1-5.3-0.2-8-0.3c0,0,0-0.1,0-0.1C-120.4,392.4-117.7,392.5-115.1,392.6z"
	/>
</svg>
